<svg height="480pt" viewBox="-24 0 480 480" width="480pt" xmlns="http://www.w3.org/2000/svg"><path d="m88 320v-144c.027344-8.824219 7.175781-15.972656 16-16h272v-136c-.027344-8.824219-7.175781-15.972656-16-16h-248v80c0 8.835938-7.164062 16-16 16h-88v352c.027344 8.824219 7.175781 15.972656 16 16h336c8.824219-.027344 15.972656-7.175781 16-16v-120h-272c-8.824219-.027344-15.972656-7.175781-16-16zm0 0" fill="#9bc9ff"/><g fill="#1e81ce"><path d="m408 152h-24v-128c0-13.253906-10.746094-24-24-24h-248c-.167969 0-.3125.078125-.480469.0898438-.644531.0429682-1.285156.1640622-1.902343.3593752-.257813.066406-.507813.144531-.753907.238281-.839843.347656-1.613281.835938-2.289062 1.441406l-104 96c-.714844.683594-1.292969 1.496094-1.703125 2.398438-.117188.261718-.21875.527344-.304688.800781-.261718.71875-.417968 1.476563-.460937 2.238281 0 .167969-.105469.320313-.105469.488282v351.945312c0 13.253906 10.746094 24 24 24h336c13.253906 0 24-10.746094 24-24v-112h24c13.253906 0 24-10.746094 24-24v-144c0-13.253906-10.746094-24-24-24zm-304-125.726562v61.726562c0 4.417969-3.582031 8-8 8h-67.535156zm264 429.726562c0 4.417969-3.582031 8-8 8h-336c-4.417969 0-8-3.582031-8-8v-344h80c13.253906 0 24-10.746094 24-24v-72h240c4.417969 0 8 3.582031 8 8v128h-264c-13.253906 0-24 10.746094-24 24v144c0 13.253906 10.746094 24 24 24h264zm48-136c0 4.417969-3.582031 8-8 8h-304c-4.417969 0-8-3.582031-8-8v-144c0-4.417969 3.582031-8 8-8h304c4.417969 0 8 3.582031 8 8zm0 0"/><path d="m160 192h-32c-4.417969 0-8 3.582031-8 8v96c0 4.417969 3.582031 8 8 8h32c22.082031-.027344 39.972656-17.917969 40-40v-32c-.027344-22.082031-17.917969-39.972656-40-40zm24 72c0 13.253906-10.746094 24-24 24h-24v-80h24c13.253906 0 24 10.746094 24 24zm0 0"/><path d="m272 192h-32c-13.253906 0-24 10.746094-24 24v64c0 13.253906 10.746094 24 24 24h32c13.253906 0 24-10.746094 24-24v-64c0-13.253906-10.746094-24-24-24zm8 88c0 4.417969-3.582031 8-8 8h-32c-4.417969 0-8-3.582031-8-8v-64c0-4.417969 3.582031-8 8-8h32c4.417969 0 8 3.582031 8 8zm0 0"/><path d="m336 208h32c4.417969 0 8 3.582031 8 8s3.582031 8 8 8 8-3.582031 8-8c0-13.253906-10.746094-24-24-24h-32c-13.253906 0-24 10.746094-24 24v64c0 13.253906 10.746094 24 24 24h32c13.253906 0 24-10.746094 24-24 0-4.417969-3.582031-8-8-8s-8 3.582031-8 8-3.582031 8-8 8h-32c-4.417969 0-8-3.582031-8-8v-64c0-4.417969 3.582031-8 8-8zm0 0"/></g></svg>