<?xml version="1.0" standalone="no"?>
<!DOCTYPE svg PUBLIC "-//W3C//DTD SVG 20010904//EN"
 "http://www.w3.org/TR/2001/REC-SVG-20010904/DTD/svg10.dtd">
<svg version="1.0" xmlns="http://www.w3.org/2000/svg"
 width="225.000000pt" height="225.000000pt" viewBox="0 0 225.000000 225.000000"
 preserveAspectRatio="xMidYMid meet">
<metadata>
Created by potrace 1.16, written by Peter Selinger 2001-2019
</metadata>
<g transform="translate(0.000000,225.000000) scale(0.100000,-0.100000)"
fill="#000000" stroke="none">
<path d="M1290 1623 c0 -7 11 -19 23 -28 31 -20 47 -56 47 -106 l0 -41 -34 29
c-19 15 -38 38 -44 49 -20 42 -189 44 -199 3 -5 -18 -18 -19 -238 -19 -264 0
-265 0 -265 -79 l0 -42 31 23 c30 23 34 23 388 26 222 2 368 -1 384 -7 16 -6
29 -21 33 -37 4 -15 -8 -114 -29 -236 -31 -178 -40 -215 -62 -244 l-26 -34
-355 0 c-240 0 -362 4 -377 11 -12 6 93 -104 233 -245 240 -241 257 -256 285
-251 124 23 191 45 280 90 55 28 99 57 98 63 -2 6 4 9 11 6 16 -6 186 151 186
172 0 7 4 14 8 16 19 8 63 78 56 89 -5 8 -3 9 6 4 10 -6 12 -4 7 9 -4 9 -3 15
2 12 12 -8 45 70 36 85 -5 7 -4 10 3 6 10 -7 52 100 52 132 0 9 -122 138 -270
286 -148 149 -270 264 -270 258z"/>
</g>
</svg>
